<?xml version="1.0" encoding="utf-8"?>
<!-- Generator: Adobe Illustrator 15.1.0, SVG Export Plug-In . SVG Version: 6.00 Build 0)  -->
<!DOCTYPE svg PUBLIC "-//W3C//DTD SVG 1.1//EN" "http://www.w3.org/Graphics/SVG/1.1/DTD/svg11.dtd">
<svg version="1.1" id="Layer_1" xmlns="http://www.w3.org/2000/svg" xmlns:xlink="http://www.w3.org/1999/xlink" x="0px" y="0px"
	 width="36px" height="36px" viewBox="0 0 36 36" enable-background="new 0 0 36 36" xml:space="preserve">
<g>
	<path d="M19.911,20.318c0,1.02-0.826,1.846-1.846,1.846c-1.019,0-1.846-0.826-1.846-1.846s0.827-1.847,1.846-1.847
		C19.085,18.472,19.911,19.299,19.911,20.318L19.911,20.318z M19.911,20.318"/>
	<path d="M12.619,15.754l2.453,2.373c0.79-0.819,1.854-1.273,2.994-1.273c1.111,0,2.16,0.434,2.945,1.221l2.412-2.412
		c-1.432-1.434-3.334-2.22-5.357-2.22C15.995,13.442,14.06,14.262,12.619,15.754L12.619,15.754z M12.619,15.754"/>
	<path d="M18.065,11.717c2.469,0,4.793,0.955,6.547,2.693l2.4-2.425c-2.396-2.376-5.576-3.681-8.947-3.681
		c-1.714,0-3.379,0.337-4.949,1c-1.513,0.642-2.874,1.557-4.042,2.725l2.412,2.412C13.245,12.684,15.582,11.717,18.065,11.717
		L18.065,11.717z M18.065,11.717"/>
	<path d="M4.952,19.491C6.397,23.814,9.845,30.132,18.058,36c8.213-5.872,11.656-12.186,13.102-16.509
		c0.654-1.605,1.02-3.355,1.035-5.19c0.004-0.084-0.008-0.136-0.008-0.148v-0.004C32.187,6.334,25.86,0,18.05,0
		C10.234,0,3.905,6.334,3.905,14.148c0,0,0,0.053,0.004,0.152C3.929,16.136,4.298,17.886,4.952,19.491L4.952,19.491z M18.058,3.488
		c6.02,0,10.9,4.881,10.9,10.901s-4.881,10.901-10.9,10.901c-6.021,0-10.901-4.881-10.901-10.901S12.037,3.488,18.058,3.488
		L18.058,3.488z M18.058,3.488"/>
</g>
</svg>
