<?xml version="1.0" encoding="utf-8"?>
<!-- Generator: Adobe Illustrator 15.1.0, SVG Export Plug-In . SVG Version: 6.00 Build 0)  -->
<!DOCTYPE svg PUBLIC "-//W3C//DTD SVG 1.1//EN" "http://www.w3.org/Graphics/SVG/1.1/DTD/svg11.dtd">
<svg version="1.1" id="Layer_1" xmlns="http://www.w3.org/2000/svg" xmlns:xlink="http://www.w3.org/1999/xlink" x="0px" y="0px"
	 width="48px" height="32.539px" viewBox="0 0 48 32.539" enable-background="new 0 0 48 32.539" xml:space="preserve">
<path d="M44.564,29.537c-0.029-0.703-0.301-7.697-0.185-8.504c0.125-0.844,0.287-4.059-0.063-5.596
	c-0.338-1.532-0.623-3.891-0.404-3.934c0.221-0.044,1.686,1.033,2.029,1.406c0.228,0.249-0.061,1.743-0.278,2.724
	c-0.146,0.177-0.235,0.396-0.235,0.638c0,0.081,0.008,0.154,0.03,0.234c0.103,0.424,0.49,0.749,0.951,0.749
	c0.47,0,0.851-0.324,0.96-0.749h0.029c0,0,0.953-3.473,0.455-4.476c-0.5-0.995-5.099-4.468-5.625-4.468
	c-0.203,0-0.532,0.014-0.882,0.036c0.146-0.024,0.291-0.053,0.435-0.103C43.174,6.994,43.906,5.428,43.4,4
	c-0.014-0.029-0.028-0.067-0.045-0.096l0.287-0.065c0,0-0.097-0.982-0.756-1.751c-0.835-0.322-1.854-0.351-2.65-0.043
	c-0.234,0.094-0.512,0.242-0.754,0.476c-0.256,0.154-0.483,0.344-0.676,0.57c0.229-0.585,0.684-1.024,1.342-1.273
	c0.688-0.264,1.539-0.294,2.313-0.118c-0.446-0.322-1.062-0.541-1.903-0.49c-2.826,0.162-2.568,3.192-2.568,3.192
	s-0.192,0.022-0.34,0.075c-0.146,0.051-0.293,0.059-0.228,0.285c0.009,0.043-0.006,0,0.06,0.27c0.066,0.198,0.213,0.175,0.404,0.152
	c0.021,0,0.123-0.021,0.293-0.065c0.021,0.228,0.064,0.448,0.146,0.676c0.399,1.128,1.45,1.83,2.568,1.835
	c-0.421,0.035-0.809,0.078-0.979,0.122c-0.264,0.065-2.631,2.028-3.999,3.178V6.735h-9.368l0.038,10.972h-1.634v-0.855l-1.999-0.008
	v-1.006h-0.563v-1.434h0.506v-1.092h-0.506v-1.033h-4.592v1.033h-0.5v1.092h0.5v1.434h-0.558v1.006l-2.13,0.008v0.855h-1.547
	l-0.02-10.972H2.9l0.022,11.888h0.013v10.914H0v3.002h48v-3.002H44.564z M38.793,5.626c-0.072-0.206-0.109-0.411-0.123-0.615
	c1.105-0.257,3.104-0.726,4.197-0.99c0.02,0.045,0.043,0.095,0.064,0.146c0.409,1.172-0.183,2.454-1.318,2.858
	C40.471,7.427,39.204,6.797,38.793,5.626z M27.896,12.302h1.83v0.922h-1.83V12.302z M29.734,13.736v0.924h-1.832v-0.924H29.734z
	 M27.896,15.171h1.83v0.924h-1.83V15.171z M21.576,18.871l-1.374-1.078l-1.075,1.377c-0.136-0.085-0.262-0.183-0.374-0.297
	l1.065-1.376l-1.323-1.036c0.085-0.137,0.184-0.262,0.299-0.374l1.321,1.037l1.033-1.319c0.138,0.081,0.268,0.172,0.382,0.282
	l-1.042,1.328l1.37,1.071C21.778,18.625,21.687,18.756,21.576,18.871z M11.19,8.214h0.996v8.072H11.19V8.214z M28.629,29.85H10.311
	v-2.688h18.318V29.85z M33.535,22.879L33.535,22.879H5.353v-1.061h28.182V22.879z M30.342,14.681v-0.923h1.83v0.923H30.342z
	 M32.166,15.195v0.923h-1.832v-0.923H32.166z M32.158,13.24h-1.83v-0.918h1.83V13.24z M33.359,13.232h-0.646v-0.923h1.092
	c-0.277,0.175-0.462,0.481-0.462,0.835C33.354,13.173,33.354,13.201,33.359,13.232z M34.547,16.111h-1.824v-0.924h1.824V16.111z
	 M34.555,14.673h-0.002h-1.83v-0.922h0.842c0.184,0.227,0.455,0.373,0.77,0.373c0.08,0,0.154-0.006,0.221-0.021V14.673z
	 M34.611,11.687h-6.7V8.171h6.7V11.687z M39.159,16.844c-0.329,0.85-2.183,3.623-2.058,4.916c0.096,0.988,0.116,6.453,0.146,6.928
	c-0.527,0-0.805,0.482-0.835,0.85l-0.521,0.029L35.9,13.393c1.031-0.718,2.966-1.985,3.104-1.89
	C39.21,11.642,39.486,15.999,39.159,16.844z M42.021,28.664c-0.388,0-0.701,0.313-0.701,0.703c0,0.059,0.008,0.117,0.021,0.17
	h-1.428c-0.021-0.887-0.125-6.357-0.125-7.213c0-0.939,2.095-3.131,2.095-3.131s-0.16,3.063-0.16,3.627
	c0,0.443,0.219,4.281,0.307,5.844H42.021z"/>
</svg>
