<?xml version="1.0" encoding="utf-8"?>
<!-- Generator: Adobe Illustrator 15.1.0, SVG Export Plug-In . SVG Version: 6.00 Build 0)  -->
<!DOCTYPE svg PUBLIC "-//W3C//DTD SVG 1.1//EN" "http://www.w3.org/Graphics/SVG/1.1/DTD/svg11.dtd">
<svg version="1.1" id="Layer_1" xmlns="http://www.w3.org/2000/svg" xmlns:xlink="http://www.w3.org/1999/xlink" x="0px" y="0px"
	 width="26.664px" height="36px" viewBox="0 0 26.664 36" enable-background="new 0 0 26.664 36" xml:space="preserve">
<g>
	<path d="M24.56,0H1.955C1.021,0,0.302,0.749,0.302,1.684v32.62C0.302,35.237,1.021,36,1.955,36h8.991v-9.313
		c0-0.283,0.21-0.549,0.494-0.549h3.635c0.287,0,0.49,0.266,0.49,0.549V36h8.995c0.934,0,1.726-0.763,1.726-1.696V1.684
		C26.285,0.749,25.493,0,24.56,0L24.56,0z M8.991,30.636c0,0.282-0.233,0.513-0.516,0.513H4.81c-0.287,0-0.517-0.23-0.517-0.513
		v-3.669c0-0.283,0.23-0.513,0.517-0.513h3.665c0.283,0,0.516,0.229,0.516,0.513V30.636z M8.991,23.981
		c0,0.283-0.233,0.514-0.516,0.514H4.81c-0.287,0-0.517-0.23-0.517-0.514v-3.669c0-0.283,0.23-0.513,0.517-0.513h3.665
		c0.283,0,0.516,0.229,0.516,0.513V23.981z M8.991,17.251c0,0.283-0.233,0.513-0.516,0.513H4.81c-0.287,0-0.517-0.23-0.517-0.513
		v-3.669c0-0.282,0.23-0.512,0.517-0.512h3.665c0.283,0,0.516,0.23,0.516,0.512V17.251z M8.991,10.598
		c0,0.283-0.233,0.516-0.516,0.516H4.81c-0.287,0-0.517-0.229-0.517-0.516V6.933c0-0.283,0.23-0.516,0.517-0.516h3.665
		c0.283,0,0.516,0.229,0.516,0.516V10.598z M15.641,23.981c0,0.283-0.229,0.514-0.513,0.514h-3.669c-0.283,0-0.513-0.23-0.513-0.514
		v-3.669c0-0.283,0.23-0.513,0.513-0.513h3.669c0.283,0,0.513,0.229,0.513,0.513V23.981z M15.641,17.251
		c0,0.283-0.229,0.513-0.513,0.513h-3.669c-0.283,0-0.513-0.23-0.513-0.513v-3.669c0-0.282,0.23-0.512,0.513-0.512h3.669
		c0.283,0,0.513,0.23,0.513,0.512V17.251z M15.641,10.598c0,0.283-0.229,0.516-0.513,0.516h-3.669c-0.283,0-0.513-0.229-0.513-0.516
		V6.933c0-0.283,0.23-0.516,0.513-0.516h3.669c0.283,0,0.513,0.229,0.513,0.516V10.598z M22.294,30.636
		c0,0.282-0.229,0.513-0.513,0.513h-3.669c-0.283,0-0.513-0.23-0.513-0.513v-3.669c0-0.283,0.229-0.513,0.513-0.513h3.669
		c0.283,0,0.513,0.229,0.513,0.513V30.636z M22.294,23.981c0,0.283-0.229,0.514-0.513,0.514h-3.669c-0.283,0-0.513-0.23-0.513-0.514
		v-3.669c0-0.283,0.229-0.513,0.513-0.513h3.669c0.283,0,0.513,0.229,0.513,0.513V23.981z M22.294,17.251
		c0,0.283-0.229,0.513-0.513,0.513h-3.669c-0.283,0-0.513-0.23-0.513-0.513v-3.669c0-0.282,0.229-0.512,0.513-0.512h3.669
		c0.283,0,0.513,0.23,0.513,0.512V17.251z M22.294,10.598c0,0.283-0.229,0.516-0.513,0.516h-3.669c-0.283,0-0.513-0.229-0.513-0.516
		V6.933c0-0.283,0.229-0.516,0.513-0.516h3.669c0.283,0,0.513,0.229,0.513,0.516V10.598z M22.294,10.598"/>
</g>
</svg>
