<?xml version="1.0" encoding="utf-8"?>
<!-- Generator: Adobe Illustrator 15.1.0, SVG Export Plug-In . SVG Version: 6.00 Build 0)  -->
<!DOCTYPE svg PUBLIC "-//W3C//DTD SVG 1.1//EN" "http://www.w3.org/Graphics/SVG/1.1/DTD/svg11.dtd">
<svg version="1.1" id="Layer_1" xmlns="http://www.w3.org/2000/svg" xmlns:xlink="http://www.w3.org/1999/xlink" x="0px" y="0px"
	 width="36px" height="36px" viewBox="0 0 36 36" enable-background="new 0 0 36 36" xml:space="preserve">
<g>
	<path d="M31.68,8.775c-0.722-1.712-1.761-3.246-3.079-4.564s-2.855-2.353-4.564-3.079C22.264,0.381,20.382,0,18.442,0
		s-3.822,0.381-5.594,1.132c-1.712,0.722-3.246,1.761-4.564,3.079S5.931,7.067,5.205,8.775c-0.75,1.773-1.128,3.655-1.128,5.594
		v0.008c0,1.935,0.381,3.813,1.128,5.582c0.722,1.713,1.761,3.246,3.079,4.564s2.856,2.353,4.564,3.079
		c0.551,0.235,1.115,0.43,1.684,0.593l0.531-3.441c-1.619-0.523-3.104-1.428-4.345-2.669c-2.061-2.061-3.197-4.799-3.197-7.716
		c0-2.921,1.136-5.659,3.197-7.72c2.041-2.041,4.746-3.176,7.626-3.201h0.187c2.88,0.024,5.587,1.16,7.627,3.201
		c2.061,2.061,3.196,4.799,3.196,7.72c0,2.913-1.136,5.655-3.196,7.716c-1.237,1.237-2.722,2.142-4.345,2.669l0.531,3.441
		c0.572-0.163,1.132-0.357,1.684-0.593c1.712-0.722,3.246-1.761,4.564-3.079s2.353-2.855,3.078-4.564
		c0.747-1.769,1.129-3.646,1.129-5.582v-0.008C32.808,12.43,32.431,10.548,31.68,8.775L31.68,8.775z M31.68,8.775"/>
	<path d="M21.907,36l-2.8-18.183c0.272-0.053,0.536-0.138,0.783-0.247c0.271-0.122,0.523-0.276,0.751-0.463
		c0.803-0.645,1.313-1.635,1.313-2.742c0-1.493-0.929-2.767-2.243-3.278c-0.271-0.106-0.556-0.179-0.852-0.211
		c-0.139-0.016-0.276-0.024-0.418-0.024c-0.143,0-0.279,0.008-0.418,0.024c-0.296,0.037-0.584,0.105-0.852,0.211
		c-1.314,0.511-2.243,1.785-2.243,3.278c0,1.107,0.515,2.097,1.314,2.742c0.227,0.183,0.479,0.341,0.75,0.463
		c0.248,0.113,0.511,0.194,0.783,0.247L14.978,36H21.907z M21.907,36"/>
	<path d="M9.603,14.377c0.004,2.357,0.921,4.576,2.588,6.244c0.921,0.92,2.008,1.614,3.197,2.049l0.543-3.529
		c-1.712-0.905-2.88-2.703-2.88-4.768c0-0.487,0.065-0.958,0.187-1.408c0.28-1.034,0.86-1.947,1.639-2.637
		c0.722-0.637,1.619-1.079,2.608-1.258c0.272-0.048,0.552-0.077,0.835-0.081h0.252c0.284,0.008,0.563,0.037,0.835,0.081
		c0.99,0.175,1.883,0.621,2.609,1.258c0.783,0.689,1.363,1.603,1.639,2.637c0.121,0.446,0.187,0.921,0.187,1.408
		c0,2.065-1.173,3.862-2.88,4.768l0.543,3.529c1.189-0.439,2.275-1.129,3.197-2.049c1.667-1.668,2.588-3.883,2.588-6.244v-0.008
		c0-2.361-0.921-4.58-2.588-6.251c-1.57-1.57-3.631-2.479-5.838-2.58v0.004c-0.139-0.008-0.275-0.008-0.414-0.008
		c-0.138,0-0.275,0.004-0.413,0.008V5.538c-2.208,0.101-4.264,1.006-5.838,2.58c-1.671,1.671-2.588,3.891-2.588,6.251v0.004
		C9.603,14.373,9.603,14.377,9.603,14.377L9.603,14.377z M9.603,14.377"/>
</g>
</svg>
